<svg xmlns="http://www.w3.org/2000/svg" viewBox="0 0 512 512" role="img" aria-label="咪康 MeHealth">
  <rect width="512" height="512" rx="116" fill="#36B878"/>
  <path d="M128 282c0-78 56-138 128-138s128 60 128 138v48c0 20-16 36-36 36h-34c-12 0-22-10-22-22s10-22 22-22h26v-40c0-53-37-94-84-94s-84 41-84 94v40h26c12 0 22 10 22 22s-10 22-22 22h-34c-20 0-36-16-36-36v-48z" fill="#FFFFFF"/>
  <path d="M214 262c0-13 10-23 23-23h38c13 0 23 10 23 23v26h26c13 0 23 10 23 23v38c0 13-10 23-23 23h-26v26c0 13-10 23-23 23h-38c-13 0-23-10-23-23v-26h-26c-13 0-23-10-23-23v-38c0-13 10-23 23-23h26v-26z" fill="#E9FFF4"/>
</svg>
